HIERARCHY
ROOT Hips
{
	OFFSET -14.64140 90.27770 -84.91600
	CHANNELS 6 Xposition Yposition Zposition Zrotation Xrotation Yrotation
	JOINT Spine
	{
		OFFSET 0.00000 13.20850 -1.60436
		CHANNELS 3 Zrotation Xrotation Yrotation
		JOINT Spine1
		{
			OFFSET 0.00000 8.61716 0.00000
			CHANNELS 3 Zrotation Xrotation Yrotation
			JOINT Spine2
			{
				OFFSET 0.00000 8.61717 0.00000
				CHANNELS 3 Zrotation Xrotation Yrotation
				JOINT Spine3
				{
					OFFSET 0.00000 8.61717 0.00000
					CHANNELS 3 Zrotation Xrotation Yrotation
					JOINT Neck
					{
						OFFSET 0.00000 11.07920 1.10792
						CHANNELS 3 Zrotation Xrotation Yrotation
						JOINT Neck1
						{
							OFFSET 0.00000 7.08032 0.00000
							CHANNELS 3 Zrotation Xrotation Yrotation
							JOINT Head
							{
								OFFSET 0.00000 7.08031 0.00000
								CHANNELS 3 Zrotation Xrotation Yrotation
								End site
								{
									OFFSET 0.00000 0.00000 0.00000
								}
							}
						}
					}
					JOINT RightShoulder
					{
						OFFSET -0.01000 7.91373 5.19711
						CHANNELS 3 Zrotation Xrotation Yrotation
						JOINT RightArm
						{
							OFFSET -18.41580 0.00000 0.00000
							CHANNELS 3 Zrotation Xrotation Yrotation
							JOINT RightForeArm
							{
								OFFSET -29.11090 0.00000 0.00000
								CHANNELS 3 Zrotation Xrotation Yrotation
								JOINT RightHand
								{
									OFFSET -24.65040 0.00000 0.00000
									CHANNELS 3 Zrotation Xrotation Yrotation
									JOINT RightHandThumb1
									{
										OFFSET -5.35114 -0.85590 3.97906
										CHANNELS 3 Zrotation Xrotation Yrotation
										JOINT RightHandThumb2
										{
											OFFSET -4.52789 0.00000 0.00000
											CHANNELS 3 Zrotation Xrotation Yrotation
											JOINT RightHandThumb3
											{
												OFFSET -2.46976 0.00000 0.00000
												CHANNELS 3 Zrotation Xrotation Yrotation
												End site
												{
													OFFSET 0.00000 0.00000 0.00000
												}
											}
										}
									}
									JOINT RightHandIndex1
									{
										OFFSET -14.26970 0.00000 2.88139
										CHANNELS 3 Zrotation Xrotation Yrotation
										JOINT RightHandIndex2
										{
											OFFSET -5.48836 0.00000 0.00000
											CHANNELS 3 Zrotation Xrotation Yrotation
											JOINT RightHandIndex3
											{
												OFFSET -3.01859 0.00000 0.00000
												CHANNELS 3 Zrotation Xrotation Yrotation
												End site
												{
													OFFSET 0.00000 0.00000 0.00000
												}
											}
										}
									}
									JOINT RightHandMiddle1
									{
										OFFSET -14.26970 0.00000 -0.09147
										CHANNELS 3 Zrotation Xrotation Yrotation
										JOINT RightHandMiddle2
										{
											OFFSET -6.17441 0.00000 0.00000
											CHANNELS 3 Zrotation Xrotation Yrotation
											JOINT RightHandMiddle3
											{
												OFFSET -3.56743 0.00000 0.00000
												CHANNELS 3 Zrotation Xrotation Yrotation
												End site
												{
													OFFSET 0.00000 0.00000 0.00000
												}
											}
										}
									}
									JOINT RightHandRing1
									{
										OFFSET -12.69180 0.00000 -3.06433
										CHANNELS 3 Zrotation Xrotation Yrotation
										JOINT RightHandRing2
										{
											OFFSET -5.62556 0.00000 0.00000
											CHANNELS 3 Zrotation Xrotation Yrotation
											JOINT RightHandRing3
											{
												OFFSET -3.56744 0.00000 0.00000
												CHANNELS 3 Zrotation Xrotation Yrotation
												End site
												{
													OFFSET 0.00000 0.00000 0.00000
												}
											}
										}
									}
									JOINT RightHandPinky1
									{
										OFFSET -11.11390 0.00000 -6.03719
										CHANNELS 3 Zrotation Xrotation Yrotation
										JOINT RightHandPinky2
										{
											OFFSET -4.52789 0.00000 0.00000
											CHANNELS 3 Zrotation Xrotation Yrotation
											JOINT RightHandPinky3
											{
												OFFSET -2.46976 0.00000 0.00000
												CHANNELS 3 Zrotation Xrotation Yrotation
												End site
												{
													OFFSET 0.00000 0.00000 0.00000
												}
											}
										}
									}
								}
							}
						}
					}
					JOINT LeftShoulder
					{
						OFFSET 0.01000 7.91373 5.19711
						CHANNELS 3 Zrotation Xrotation Yrotation
						JOINT LeftArm
						{
							OFFSET 18.41580 0.00000 0.00000
							CHANNELS 3 Zrotation Xrotation Yrotation
							JOINT LeftForeArm
							{
								OFFSET 29.11090 0.00000 0.00000
								CHANNELS 3 Zrotation Xrotation Yrotation
								JOINT LeftHand
								{
									OFFSET 24.65040 0.00000 0.00000
									CHANNELS 3 Zrotation Xrotation Yrotation
									JOINT LeftHandThumb1
									{
										OFFSET 5.35114 -0.85590 3.97906
										CHANNELS 3 Zrotation Xrotation Yrotation
										JOINT LeftHandThumb2
										{
											OFFSET 4.52789 0.00000 0.00000
											CHANNELS 3 Zrotation Xrotation Yrotation
											JOINT LeftHandThumb3
											{
												OFFSET 2.46977 0.00000 0.00000
												CHANNELS 3 Zrotation Xrotation Yrotation
												End site
												{
													OFFSET 0.00000 0.00000 0.00000
												}
											}
										}
									}
									JOINT LeftHandIndex1
									{
										OFFSET 14.26970 0.00000 2.88139
										CHANNELS 3 Zrotation Xrotation Yrotation
										JOINT LeftHandIndex2
										{
											OFFSET 5.48836 0.00000 0.00000
											CHANNELS 3 Zrotation Xrotation Yrotation
											JOINT LeftHandIndex3
											{
												OFFSET 3.01859 0.00000 0.00000
												CHANNELS 3 Zrotation Xrotation Yrotation
												End site
												{
													OFFSET 0.00000 0.00000 0.00000
												}
											}
										}
									}
									JOINT LeftHandMiddle1
									{
										OFFSET 14.26970 0.00000 -0.09147
										CHANNELS 3 Zrotation Xrotation Yrotation
										JOINT LeftHandMiddle2
										{
											OFFSET 6.17440 0.00000 0.00000
											CHANNELS 3 Zrotation Xrotation Yrotation
											JOINT LeftHandMiddle3
											{
												OFFSET 3.56744 0.00000 0.00000
												CHANNELS 3 Zrotation Xrotation Yrotation
												End site
												{
													OFFSET 0.00000 0.00000 0.00000
												}
											}
										}
									}
									JOINT LeftHandRing1
									{
										OFFSET 12.69180 0.00000 -3.06433
										CHANNELS 3 Zrotation Xrotation Yrotation
										JOINT LeftHandRing2
										{
											OFFSET 5.62556 0.00000 0.00000
											CHANNELS 3 Zrotation Xrotation Yrotation
											JOINT LeftHandRing3
											{
												OFFSET 3.56744 0.00000 0.00000
												CHANNELS 3 Zrotation Xrotation Yrotation
												End site
												{
													OFFSET 0.00000 0.00000 0.00000
												}
											}
										}
									}
									JOINT LeftHandPinky1
									{
										OFFSET 11.11390 0.00000 -6.03719
										CHANNELS 3 Zrotation Xrotation Yrotation
										JOINT LeftHandPinky2
										{
											OFFSET 4.52789 0.00000 0.00000
											CHANNELS 3 Zrotation Xrotation Yrotation
											JOINT LeftHandPinky3
											{
												OFFSET 2.46976 0.00000 0.00000
												CHANNELS 3 Zrotation Xrotation Yrotation
												End site
												{
													OFFSET 0.00000 0.00000 0.00000
												}
											}
										}
									}
								}
							}
						}
					}
					JOINT pCube4
					{
						OFFSET 0.00000 10.91090 1.10792
						CHANNELS 3 Zrotation Xrotation Yrotation
						End site
						{
							OFFSET 0.00000 0.00000 0.00000
						}
					}
				}
			}
		}
	}
	JOINT RightUpLeg
	{
		OFFSET -9.98441 0.00000 0.00000
		CHANNELS 3 Zrotation Xrotation Yrotation
		JOINT RightLeg
		{
			OFFSET 0.00000 -42.11790 0.00000
			CHANNELS 3 Zrotation Xrotation Yrotation
			JOINT RightFoot
			{
				OFFSET 0.00000 -45.00020 -0.00001
				CHANNELS 3 Zrotation Xrotation Yrotation
				JOINT RightForeFoot
				{
					OFFSET 0.00000 -3.74820 0.00000
					CHANNELS 3 Zrotation Xrotation Yrotation
					JOINT RightToeBase
					{
						OFFSET 0.00000 0.06325 14.43120
						CHANNELS 3 Zrotation Xrotation Yrotation
						End site
						{
							OFFSET 0.00000 0.00000 0.00000
						}
					}
				}
			}
		}
	}
	JOINT LeftUpLeg
	{
		OFFSET 9.98441 0.00000 0.00000
		CHANNELS 3 Zrotation Xrotation Yrotation
		JOINT LeftLeg
		{
			OFFSET 0.00000 -42.11800 0.00000
			CHANNELS 3 Zrotation Xrotation Yrotation
			JOINT LeftFoot
			{
				OFFSET 0.00000 -45.00070 0.00000
				CHANNELS 3 Zrotation Xrotation Yrotation
				JOINT LeftForeFoot
				{
					OFFSET 0.00000 -3.74824 0.00000
					CHANNELS 3 Zrotation Xrotation Yrotation
					JOINT LeftToeBase
					{
						OFFSET 0.00000 0.06325 14.43110
						CHANNELS 3 Zrotation Xrotation Yrotation
						End site
						{
							OFFSET 0.00000 0.00000 0.00000
						}
					}
				}
			}
		}
	}
}
MOTION
Frames: 4
Frame Time: 0.050000
0.030482589100664915 -0.012401111347179304 0.03348449985017473 0.038028984747315635 0.04126351920099177 0.029520376377965663 -2.6344770578911794 0.12214680989161229 -0.8220235749770424 -0.8421541581215451 3.583741828975163 0.38471277958449646 -1.4136478261440673 -2.411897002253427 -0.9848636884737493 0.17768173884712657 -0.1425421559421293 -0.8355467072978707 1.1388736663881733 14.868142997720538 -2.9910665906637965 0.37346434679525187 0.7239937588389714 -8.23998175772127 1.3902681583433996 -14.231289112109016 -0.6989489101816919 -8.653823245306981 2.8905009418318395 -15.319552566745802 72.57286222919757 -17.686943866717577 21.627816858127346 38.45804465796161 9.103178179594755 97.55002567065773 16.959961838316477 -0.5291785728518319 -2.5370151145003277 4.555533279168473 -0.1087372222943774 -1.5740978669672454 -0.006702286897130299 -0.012026344368336198 -56.225044783179854 -0.019099157233686 -0.010112417357686265 -56.2743569024747 -38.73208583345525 0.04066582731128633 0.029417580283902015 -0.019737600053282196 0.013163336853219252 -0.020479100228216467 0.04647320673419603 0.011481404270104073 -0.022981782520050016 -36.70296511575024 0.010370588283604114 0.009093256965215778 -0.035914164478374686 0.01963875837293702 0.037494210790996046 7.927363940506789e-05 0.0025338931572072895 0.027202656939492913 -19.731974275460377 -0.042582043252825746 -0.03144558255480489 -0.022202204633053144 0.01950675393113483 0.029224514645956684 -0.0175514031363698 -0.040539392272743315 -0.011092803488256052 24.05541967790712 -0.031715962702899614 -0.010446230460298925 28.852721992786442 0.0168504397879783 0.0037208160899459292 28.857810304658383 -0.042004160897913465 0.03939622512279126 7.379931981334105 1.8833775079254251 12.789645738152043 -71.90359848506364 9.200934345258908 -13.420966314809768 -50.56455799017752 13.246873608030668 -105.09806406960486 -5.954687854008388 0.938782214612552 -3.822966457318243 -0.43975053312250306 0.04598971000404787 -8.154044668067097 0.026838282331303594 -0.037987340218988766 44.57636144317847 -0.02038985398070333 0.002952025217429285 44.5810725896133 12.459804091576936 0.04934493376717569 0.03396519719185866 0.01200947518201382 0.041607302686437225 0.015989093006859866 -0.021019002161303257 0.0324904639905578 0.028824817268589594 11.14652287872805 -0.011390793994992137 -0.04238288609303306 0.008158674133359781 -0.016625513670374254 0.01797870141585083 0.028011005047666744 -0.0021918782855647858 -0.02154026913992456 4.817488937521423 -0.024674547818099954 -0.03510301101254224 0.0244822236008117 -0.0008276213806266375 -0.01505758169580695 0.02183573537216125 0.007989363473970276 -0.04390584230427153 -5.587647491277 0.003032546165626655 -0.04976693568281622 -6.707690874999317 0.008913068463400451 0.01096696692338693 -6.710306211586667 0.014598582819846426 0.00795559765919605 0.0004848280799099819 -0.002321767490754396 -0.047184519839164045 8.085596845829352 3.4526771429901917 -19.17733518692295 0.02214387439975359 10.43912623724908 0.05829141634705559 -5.581335205501989 -15.67251485956443 3.192013419069858 0.002131023159790432 -0.043254644540463405 0.024567439618220947 0.04042949096885282 4.666606806554208 -0.002247563039557396 12.501509250479543 -8.23544350582508 6.889974110880225 -0.023929695820768964 46.35092677810456 0.0024264900360844595 -4.321889759710059 -14.768303668998767 -3.845883855216464 0.021331450106758937 -0.0361357304569926 -0.04861051330970795 0.021654936021556145 -10.71453933110335 -0.009762766150079677 
0.025591122007827313 -0.012749157410004916 0.021463105907173763 0.01759209171581513 -0.01191471401479067 0.017307380720305878 -2.760081994103409 0.0749271592332605 -0.8520596264280275 -0.8830225168317819 3.6009586055799896 0.4004296560288663 -1.4561795252653411 -2.552242971515421 -0.8449303758170094 0.0957690189699629 -0.16410602940172173 -0.8449549148579297 1.2714437509553476 15.137058907622764 -2.958349089991046 0.34277237679257017 0.7540333002288291 -8.207943157068716 1.4264967028847813 -14.187743354406418 -0.6746843579648474 -9.366104173930854 2.979142941231188 -15.345877277366615 71.3531246088846 -21.058716459697127 25.715867963491828 36.80554426262984 7.828257523157426 98.52466699120922 16.136554877002467 -0.5782484437582475 -1.6343996909864802 4.551233614733918 -0.1680232052963558 -1.6006415110932832 0.04751938786141007 0.005035593197484888 -56.20956045140632 -0.018086711260933315 0.018962721033919997 -56.25871156012365 -38.79756135465524 0.021209740548295213 -0.015317626068671146 0.01762258570819146 0.039327704272818655 0.03457103722460588 0.04222918759680158 -0.034848628647570615 -0.0056345982226178445 -36.65947705827305 0.04337088860197372 -0.0232294943421586 -0.0320547328693344 0.028880689357989413 -0.037812476102746996 -0.014014574162237687 0.0224744729966837 0.03714636232904978 -19.718167702854213 0.00777900083284255 -0.006898443388333782 0.024299360726471392 -0.019160137660741927 -0.044140862573928144 0.04174826285336262 -0.0382616288323861 -0.018274819499988756 24.06791628192777 0.015813942500889126 0.025995761031916444 28.871555851741387 -0.0063455662751658376 -0.025904528174656244 28.857544165347115 0.04770760033066742 0.0022033050968644596 7.531312115812784 1.929160386539424 12.792167890639158 -70.87484815647358 8.89929719630174 -14.493662736048504 -44.70715735711705 11.228056296926917 -103.7667046879951 -3.610528326157152 1.8179821922867327 -4.9040880135269305 -0.522773117065416 0.03897272254142825 -8.096094049658397 -0.002357960213590352 -0.013890453633975588 44.518831396531354 0.03047887828382182 -0.023485236355072964 44.59883220332314 12.42040898991562 0.0012222390273267404 0.014860613804709214 0.026511179176055825 0.032465467729551355 0.025751515558942176 -0.020878425378977675 0.02699570142508354 0.018852790316334158 11.073570967186512 -0.009249449615110797 -0.03839229288509153 0.019653105701165283 0.0005317922690332022 0.022987758197412708 -0.046021938845196134 -0.017213790143432047 -0.006734040359345239 4.762918344951154 0.02267117049623561 -0.040152945916165764 0.019938342396217827 -0.009034031796134613 0.009395368691760081 0.031046179764377676 -0.007128383745639097 -0.022268162132167122 -5.648430821621399 0.0032222623363305433 -0.00594444089433714 -6.6761754253259165 0.03683531624217175 0.010234202010635901 -6.7442471168906035 -0.02476066198676313 -0.009882519168040583 0.045821076536692304 0.03648774948524102 0.0006157135560442207 8.013581678308404 3.5434681695571006 -19.202464493448446 0.008154008850651411 10.402017485036135 -0.020976767467026054 -5.59021683710211 -15.67099407191236 3.185812003352261 0.04726545085231981 -0.03682668523276806 0.017244432879940437 -0.0321500621904826 4.74339457944368 0.04925122474581763 12.490659493743511 -8.249398890697382 6.844225226283713 0.049247525772554944 46.381556486174226 -0.03544869986200004 -4.341494263756827 -14.732207894371308 -3.818241105747289 -0.015971109237073726 -0.028151223786251223 0.017034664613051313 0.018084405087949392 -10.759207573315713 -0.0016817144971936608 
0.01623283061654879 0.01407237025994334 -0.013864574114871006 0.018564262854479072 -0.006018741070592994 -0.02273554919033092 -2.845353366636324 -0.10502036118442609 -0.7587917927156055 -0.9466520776627022 3.5633930026004617 0.3931815711157827 -1.4948400071921364 -2.5320405811960094 -0.7530139954947708 0.025165420409367163 -0.16483321404312357 -0.765688035106341 1.3192923101539098 15.427240107184417 -2.944344463878732 0.36125101600950454 0.8654299020361514 -8.373797684991013 1.4440877174710685 -14.081045990003096 -0.6879303654277196 -9.963399861096544 3.11725333302062 -15.307300124986131 69.58209879012038 -23.829895633288515 29.82066018068379 35.272957111179146 6.544310049086763 99.12265245492898 15.635728978903538 -0.5391047078649451 -0.9328791320342715 4.514284046360777 -0.16499692613941755 -1.5638334531163076 0.026906244377169646 0.018578759466833353 -56.262178768497925 -0.03421805618936049 0.0173329216995894 -56.248109417862 -38.72621056672635 -0.011566124851220522 -0.04195488778508173 0.04591577757232359 0.01208203077125208 -0.028976483008492156 -0.02679927952866047 0.04552175996557728 0.01064267775038065 -36.67281329707853 -0.03278326435636041 -0.0418431952392131 0.008482707054878913 -0.003701992953135338 -0.0012443533640571567 -0.02370101364435697 -0.04073848430174787 -0.008206533133176916 -19.720278522430675 0.00430812598781991 -0.02179894114248952 -0.0010689267474396265 0.017968102058356153 -0.005318622233204161 -0.0014191022433971624 0.03785956336349331 0.021545808707297224 24.051049234828408 -0.021094043336337787 -0.011759849990287813 28.888461386222332 0.0035529128923146606 -0.009450040731536375 28.859238031911648 -0.01573419068652661 -6.061149202659423e-05 7.6329988489736635 1.8941315307917925 12.749470752317569 -69.68137827805272 8.942891571054526 -15.451777206958322 -39.19535284088481 8.800375716459326 -102.5089760327005 -1.4166545803108341 2.4418936378187426 -5.728402583304847 -0.4969986319607894 0.09505985456455973 -8.100086185317556 0.03573006441602447 -0.04431021978167055 44.52799190881219 0.02668566276936667 -0.012992409256429645 44.5766302736953 12.467837741986756 -0.04463066511014771 0.01952158407989019 0.0030090530582422437 0.033473037191667596 -0.024702574103876274 0.008200026312268651 0.013248177911209814 0.048770083191957414 11.09904648667288 -0.047227574888957444 0.014806260537554695 -0.037864358489438324 0.043386900223356076 0.02953938577421314 -0.047927546272894375 0.007489191311879704 -0.0217167366380403 4.748836039876726 0.04448631473434407 -0.0011520945134087257 0.026910563611389802 -0.0022040884469543562 -0.04351828681899557 -0.0282881483749186 0.0036293482772962143 -0.028688835580089084 -5.5930282047546696 0.012944953610793435 0.01697015708785699 -6.696377270992503 -0.012770337728403811 -0.038762881969268664 -6.733377565143777 0.016787437283754446 0.022087461824639637 -0.02513340064336846 0.014978091999053133 -0.004278875518342573 8.074683047973549 3.5152986176192553 -19.243809268546247 0.014885012944340862 10.382495514440738 -0.034059891565803135 -5.650119669006744 -15.662590723968535 3.193686266639096 -0.028033686374410102 -0.02248330941643919 -0.0186949523818198 -0.013565435526116998 4.7288308227385 0.03879793300328508 12.464903939813071 -8.230135725627218 6.917612430538862 0.008447186065893224 46.33062448243954 -0.007031296452712079 -4.319068065910278 -14.733970043153617 -3.822259112980509 0.026978290755836833 -0.03176048126169224 0.0255317214044821 -0.00664205503615867 -10.773125342396593 -0.04153214971895374 
0.005198981142073979 0.009204076222017571 -0.02547908389447729 -0.03384806954664552 0.044825972303356026 0.0016979369939691864 -3.043145799845319 -0.1445809585168864 -0.7842301594144034 -0.9424539321651288 3.6356215304542707 0.3922273223132584 -1.5367901884311557 -2.5966179159079616 -0.5687265215749397 -0.003996666072833721 -0.1673242259343661 -0.8008439608055863 1.3550114679572691 15.570331241392486 -2.9616191237970004 0.4106517124109652 0.9100290975546474 -8.34907965320044 1.4421819935513491 -13.985181776716217 -0.6947955893644222 -10.482916621991968 3.315016563405001 -15.125190754718107 67.39076575364835 -25.032549543892483 34.0602864621141 32.045151572434314 5.058433726852511 99.94674519013837 14.988645175893064 -0.6103866854036161 -0.4593655007585621 4.523081392919695 -0.10738995437096349 -1.6120096324405386 0.014331077252709625 0.021523062754979897 -56.24015688853377 -0.01627127138289893 0.031909363962313954 -56.25522773557055 -38.72189134437752 0.00275002558744066 -0.005252881367720268 -0.026333337281150518 0.009609281598153224 0.03666996796546309 -0.043306487492297395 -0.04922891290413991 -0.0227222658783625 -36.65050217457108 -0.02069393424955618 0.005699121211755709 0.005073166142604551 0.007681385593424731 0.009532306233701084 -0.020351899468510865 -0.015510317167957784 0.03192916084453184 -19.724983877116692 -0.01956446273183279 0.028474009753673313 0.03312871764058081 -0.011182928735281856 -0.016798158508199847 0.0033550359825484754 0.00725920737187875 -0.03083757068378994 24.064213592879874 0.03355015602553611 -0.01899597630749396 28.908660562231677 0.009413481666466815 -0.04536427316718333 28.898369392091148 0.03976231779874714 -0.0355501816883211 7.844428390959526 1.9502585621754691 12.644740596242968 -68.3977291142396 9.214805452112913 -17.00922156472929 -32.612636417164545 5.6926312139485065 -101.38664338508596 0.6298621835135991 2.8592491985810624 -6.227401773711206 -0.47640694093849106 0.08028997841220224 -8.17200133695484 -0.019548332156374974 0.013681892996722216 44.56442473859586 -0.03117078578299191 -0.026519995082171642 44.52809860977523 12.446880920150667 -0.026484630531115022 0.002607882033619448 0.02286431254844436 -0.03240309880481447 -0.007590092669129028 0.03587308742531593 0.04452479539845333 0.04910036985267761 11.094860453406657 -0.015536859171837497 -0.001690358203794125 0.014618386442688655 0.021677819075468802 0.03374899827089135 0.008530903639104753 -0.009406275989306732 -0.013829411283920897 4.817683884749192 0.014973108535945098 -0.013717141179556152 -0.03153669610848941 0.03424804258653881 0.018542458094921506 -0.02647252769451751 -0.014339644077870523 -0.008328578598427977 -5.617600547298337 -0.027649961881442794 -0.03711483519930101 -6.735707568746113 -0.039062606882829205 0.03912305620193098 -6.685454562760324 0.012771321122092226 0.006109560959108282 0.012544750225241541 0.0044556417478387785 0.037548285247989845 8.043860647350723 3.5170246324963492 -19.24766931452171 0.041843073470436816 10.421443230725806 0.03792344821813779 -5.6318295064724575 -15.66712880812663 3.2388544142554094 0.03132171587482886 0.04384420575643632 0.020993823623989296 -0.016124784265970585 4.6693968205044465 -0.02062832484709723 12.441789708855177 -8.281140095541911 6.897095039546391 0.030471162419786084 46.391365333040866 0.02782749537766898 -4.340519175545825 -14.775722810103863 -3.8239800777952655 -0.00434250581437115 -0.04638366535047327 0.02134727664011141 -0.03547945767334507 -10.790443467164163 -0.03380626620693031 
